<svg width="12" height="21" viewBox="0 0 12 21" fill="none" xmlns="http://www.w3.org/2000/svg">
<path fill-rule="evenodd" clip-rule="evenodd" d="M11.0713 0.237262C10.9963 0.162054 10.9072 0.102384 10.8091 0.0616703C10.711 0.0209569 10.6058 0 10.4996 0C10.3933 0 10.2881 0.0209569 10.19 0.0616703C10.0919 0.102384 10.0028 0.162054 9.92777 0.237262L0.236593 9.92843C0.161385 10.0035 0.101715 10.0926 0.0610018 10.1907C0.0202885 10.2888 -0.000668526 10.394 -0.000668526 10.5002C-0.000668526 10.6064 0.0202885 10.7116 0.0610018 10.8097C0.101715 10.9079 0.161385 10.997 0.236593 11.072L9.92777 20.7632C10.0794 20.9148 10.2851 21 10.4996 21C10.714 21 10.9197 20.9148 11.0713 20.7632C11.223 20.6115 11.3082 20.4058 11.3082 20.1914C11.3082 19.9769 11.223 19.7712 11.0713 19.6196L1.95032 10.5002L11.0713 1.38082C11.1465 1.3058 11.2062 1.21668 11.2469 1.11857C11.2876 1.02045 11.3086 0.915268 11.3086 0.809041C11.3086 0.702814 11.2876 0.597631 11.2469 0.499516C11.2062 0.4014 11.1465 0.312281 11.0713 0.237262Z" fill="white"/>
</svg>
