<svg width="12" height="21" viewBox="0 0 12 21" fill="none" xmlns="http://www.w3.org/2000/svg">
<path fill-rule="evenodd" clip-rule="evenodd" d="M0.237262 0.237262C0.312281 0.162054 0.4014 0.102384 0.499516 0.0616703C0.597631 0.0209569 0.702815 0 0.809042 0C0.915269 0 1.02045 0.0209569 1.11857 0.0616703C1.21668 0.102384 1.3058 0.162054 1.38082 0.237262L11.072 9.92843C11.1472 10.0035 11.2069 10.0926 11.2476 10.1907C11.2883 10.2888 11.3093 10.394 11.3093 10.5002C11.3093 10.6064 11.2883 10.7116 11.2476 10.8097C11.2069 10.9079 11.1472 10.997 11.072 11.072L1.38082 20.7632C1.22918 20.9148 1.0235 21 0.809042 21C0.594583 21 0.388907 20.9148 0.237262 20.7632C0.0856165 20.6115 0.000422832 20.4058 0.000422832 20.1914C0.000422832 19.9769 0.0856165 19.7712 0.237262 19.6196L9.35828 10.5002L0.237262 1.38082C0.162053 1.3058 0.102383 1.21668 0.0616695 1.11857C0.0209562 1.02045 0 0.915268 0 0.809041C0 0.702814 0.0209562 0.597631 0.0616695 0.499516C0.102383 0.4014 0.162053 0.312281 0.237262 0.237262Z" fill="white"/>
</svg>
